<?xml version="1.0" encoding="UTF-8"?>
<svg version="1.1" xmlns="http://www.w3.org/2000/svg" width="512" height="512">
<path d="M0 0 C8.83199861 6.34016595 14.63709387 15.7822145 16.46484375 26.4921875 C17.47460773 36.82157643 15.42513239 46.97403134 9.21484375 55.4296875 C1.40488674 64.48326824 -8.09464866 69.43537847 -20.015625 70.51171875 C-23.20685276 70.48698055 -26.37590703 69.94350882 -29.53515625 69.4921875 C-29.53515625 88.6321875 -29.53515625 107.7721875 -29.53515625 127.4921875 C-15.83404559 127.3739442 -15.83404559 127.3739442 -2.13330078 127.22192383 C-0.39486244 127.21314863 1.34358214 127.20550715 3.08203125 127.19921875 C3.95931885 127.18387085 4.83660645 127.16852295 5.74047852 127.15270996 C16.34907983 127.14829829 24.86175794 129.97632639 32.46484375 137.4921875 C39.10474478 145.41172684 40.77325091 153.38910215 40.72554016 163.47996521 C40.72936571 164.35024717 40.73319126 165.22052913 40.73713273 166.11718327 C40.74739943 169.01495233 40.74348267 171.9125209 40.73950195 174.81030273 C40.7438519 176.89537742 40.74903599 178.98045051 40.75498962 181.06552124 C40.76835965 186.7163161 40.76896056 192.367044 40.76642632 198.01785159 C40.76535537 202.73953382 40.77024311 207.46120256 40.77503175 212.18288189 C40.78611979 223.32351033 40.78656812 234.46410505 40.78051758 245.60473633 C40.77447606 257.08934871 40.78679501 268.57383864 40.80808765 280.05843014 C40.82571147 289.92787278 40.83170381 299.79727648 40.8284499 309.66673428 C40.82663833 315.55732591 40.82926085 321.44783016 40.84316444 327.33840752 C40.85575098 332.87802222 40.85379073 338.41744614 40.84075356 343.95705795 C40.83839013 345.98671979 40.84111404 348.01639509 40.84937668 350.04604149 C40.85986549 352.82338976 40.85172636 355.60010034 40.83906555 358.37742615 C40.84643984 359.1745256 40.85381412 359.97162506 40.86141187 360.79287905 C40.77259439 370.09729505 37.57942801 378.45115108 31.46484375 385.4921875 C23.43802615 392.2243571 16.02810574 393.79149447 5.78466797 393.81445312 C4.72042099 393.82438293 3.65617401 393.83431274 2.55967712 393.84454346 C-0.9537314 393.87370051 -4.46695921 393.88737745 -7.98046875 393.8984375 C-10.43179323 393.90994921 -12.88311769 393.92146456 -15.33444214 393.9329834 C-20.47394649 393.95398004 -25.6133885 393.96568006 -30.75292969 393.97265625 C-37.31653249 393.98360928 -43.87930208 394.03163763 -50.44264412 394.08860016 C-55.50780589 394.12597971 -60.5727697 394.13627088 -65.63805771 394.139328 C-68.05643128 394.14535556 -70.47480242 394.16132608 -72.8930397 394.18769836 C-98.28511422 394.44480481 -98.28511422 394.44480481 -108.63967896 385.71862793 C-115.12220053 379.17296254 -117.73485534 370.80138452 -117.92578125 361.73046875 C-117.89961784 359.42154739 -117.85254562 357.11277351 -117.78515625 354.8046875 C-117.76710938 353.61423828 -117.7490625 352.42378906 -117.73046875 351.19726562 C-117.68384114 348.29469719 -117.61841906 345.39389639 -117.53515625 342.4921875 C-118.3884552 342.49403109 -119.24175415 342.49587467 -120.12091064 342.49777412 C-140.89491322 342.54196561 -161.66890768 342.57505015 -182.44294739 342.59581184 C-192.4891631 342.60611921 -202.53534741 342.62016925 -212.58154297 342.64306641 C-221.33901046 342.66301678 -230.0964552 342.67590786 -238.85394478 342.68036449 C-243.48985739 342.68296907 -248.12570494 342.68907979 -252.76159668 342.70364761 C-257.12817318 342.71725752 -261.49465804 342.72140325 -265.86125374 342.71840286 C-267.46078045 342.7189515 -269.06031033 342.7229086 -270.65981865 342.73059845 C-281.72809709 342.78118496 -291.59387831 342.80777854 -300.53515625 335.4921875 C-306.48032148 329.23134978 -309.0730635 322.54393079 -308.8515625 313.890625 C-307.8021489 305.93581082 -303.97484496 298.91501499 -297.625 294.01953125 C-289.41428043 288.96353069 -280.85353474 290.14448681 -271.53515625 290.4921875 C-271.53515625 281.9121875 -271.53515625 273.3321875 -271.53515625 264.4921875 C-273.48212402 264.50789795 -275.4290918 264.5236084 -277.43505859 264.53979492 C-283.90101887 264.58836426 -290.36693566 264.6227294 -296.83302879 264.64762402 C-300.7496303 264.66321411 -304.66603262 264.68432897 -308.58251953 264.71850586 C-312.36915645 264.75133911 -316.15560297 264.76909044 -319.94237137 264.77681923 C-321.37991961 264.7823201 -322.81745861 264.79306079 -324.25492477 264.80937767 C-337.5215585 264.95384437 -347.99583421 263.1339712 -358.16015625 254.1796875 C-368.84132715 242.09309938 -370.70571053 232.07866378 -370.6328125 216.21484375 C-370.63139755 215.048358 -370.6299826 213.88187225 -370.62852478 212.68003845 C-370.62294831 208.97156153 -370.61040009 205.26314603 -370.59765625 201.5546875 C-370.59263821 199.033204 -370.58807584 196.51171955 -370.58398438 193.99023438 C-370.57298658 187.82419796 -370.5562719 181.65819712 -370.53515625 175.4921875 C-371.54763428 175.51249023 -372.5601123 175.53279297 -373.60327148 175.55371094 C-374.95425863 175.57013631 -376.30525194 175.58606015 -377.65625 175.6015625 C-378.32088257 175.61622559 -378.98551514 175.63088867 -379.67028809 175.64599609 C-390.1278062 175.73573269 -398.50990389 171.30502531 -406.09765625 164.3671875 C-412.88758718 157.33690503 -416.38924151 148.15276642 -416.6015625 138.4609375 C-416.18175784 127.77500078 -413.03871548 118.08161638 -405.55859375 110.2421875 C-397.46107923 103.2389317 -389.24694838 100.1339192 -378.66015625 100.3671875 C-377.87640625 100.37621094 -377.09265625 100.38523437 -376.28515625 100.39453125 C-374.3683557 100.41790687 -372.45171434 100.45377097 -370.53515625 100.4921875 C-370.54181808 99.94254333 -370.54847992 99.39289917 -370.55534363 98.82659912 C-370.62226622 93.0504752 -370.66719019 87.2744633 -370.69995117 81.49804688 C-370.71493838 79.34891274 -370.73533512 77.19980867 -370.76147461 75.05078125 C-371.14044873 43.0683375 -371.14044873 43.0683375 -359.71875 30.4921875 C-352.33380363 23.56973272 -343.70799436 19.36460264 -333.53143597 19.36913967 C-332.54264657 19.36714862 -331.55385717 19.36515757 -330.53510445 19.36310619 C-329.45631219 19.36601903 -328.37751993 19.36893187 -327.26603699 19.37193298 C-326.11428665 19.37107856 -324.96253631 19.37022413 -323.77588445 19.36934382 C-320.58332383 19.36798187 -317.39080384 19.37110576 -314.19824803 19.37612188 C-310.7538593 19.38044127 -307.30947246 19.3789789 -303.86508179 19.3782196 C-297.89886718 19.37769532 -291.9326635 19.38083221 -285.96645164 19.38645744 C-277.34031676 19.39458529 -268.71418716 19.39718898 -260.08804885 19.39844543 C-246.09263178 19.40063393 -232.09722054 19.40728854 -218.10180664 19.41674805 C-204.50675485 19.42592739 -190.91170465 19.43300567 -177.31665039 19.43725586 C-176.47861825 19.43751858 -175.64058611 19.43778131 -174.77715906 19.43805199 C-170.57298822 19.43935703 -166.36881737 19.44062074 -162.16464651 19.44186389 C-127.2881456 19.45223021 -92.41165146 19.46984304 -57.53515625 19.4921875 C-57.02977829 18.45757133 -57.02977829 18.45757133 -56.51419067 17.40205383 C-56.06880951 16.49891953 -55.62342834 15.59578522 -55.16455078 14.6652832 C-54.72450714 13.76928909 -54.2844635 12.87329498 -53.83108521 11.95014954 C-48.95498124 2.70174253 -40.27331817 -2.0650119 -30.6171875 -5.11328125 C-19.96030665 -7.13269019 -9.30652203 -5.53515794 0 0 Z M-128.53515625 264.4921875 C-128.53515625 273.0721875 -128.53515625 281.6521875 -128.53515625 290.4921875 C-124.90515625 290.4921875 -121.27515625 290.4921875 -117.53515625 290.4921875 C-117.53515625 281.9121875 -117.53515625 273.3321875 -117.53515625 264.4921875 C-121.16515625 264.4921875 -124.79515625 264.4921875 -128.53515625 264.4921875 Z " fill="#213843" transform="translate(443.53515625,61.5078125)"/>
<path d="M0 0 C1.8871875 0.0309375 1.8871875 0.0309375 3.8125 0.0625 C4.03164063 0.72636719 4.25078125 1.39023438 4.4765625 2.07421875 C6.90985583 8.84985261 9.20800635 12.76025318 15.8125 16.0625 C17.84327498 16.16940735 19.87758276 16.21136878 21.91113281 16.22363281 C23.19296448 16.23324036 24.47479614 16.2428479 25.79547119 16.25274658 C27.20218732 16.25759536 28.60890551 16.26187399 30.015625 16.265625 C31.45570884 16.27137761 32.89579266 16.27713533 34.33587646 16.28289795 C37.35884966 16.2934106 40.38179625 16.299251 43.40478516 16.30273438 C47.26950951 16.30820863 51.13387967 16.33221223 54.99849319 16.36070633 C57.97543343 16.37937864 60.95228931 16.38454082 63.92928314 16.38607025 C65.35338011 16.38908881 66.77747588 16.3970904 68.2015152 16.41025543 C70.19970167 16.42740412 72.19803438 16.42357817 74.19628906 16.41894531 C75.331651 16.42259094 76.46701294 16.42623657 77.63677979 16.42999268 C82.37431323 15.88176779 85.66049532 14.18250455 89.0625 10.875 C91.29163493 7.29246173 91.97325777 4.1887743 92.8125 0.0625 C99.93620788 -0.75596857 104.6178834 0.29795093 110.609375 4.2734375 C114.63123592 7.53941676 117.15992747 11.1047824 118.8125 16.0625 C118.91725587 18.91872154 118.9646873 21.75096422 118.96640015 24.60758972 C118.97297353 25.93216414 118.97297353 25.93216414 118.9796797 27.28349763 C118.99307705 30.25434886 118.99924868 33.22517042 119.00537109 36.19604492 C119.01327132 38.3214125 119.02154022 40.44677874 119.03015137 42.57214355 C119.05638067 49.56240557 119.07167994 56.55267361 119.0859375 63.54296875 C119.09129681 65.94835222 119.09667432 68.35373565 119.10206985 70.75911903 C119.12369992 80.76415964 119.14243698 90.76919863 119.15369225 100.77425671 C119.16993353 115.11769937 119.20311454 129.46087123 119.26009309 143.8042118 C119.29878132 153.88669185 119.31832363 163.96909944 119.32361281 174.05165178 C119.32726776 180.07483756 119.33930486 186.09773457 119.37171555 192.12084007 C119.40177613 197.78849558 119.4081149 203.45568725 119.39633179 209.12340546 C119.39611089 211.20187674 119.40442945 213.28036941 119.42198563 215.35876656 C119.44468065 218.20056577 119.43638053 221.04068357 119.42050171 223.88249207 C119.4343838 224.70147875 119.44826588 225.52046544 119.46256864 226.36426991 C119.36662368 233.35212876 116.59663677 237.94763424 112.00390625 243.0859375 C111.19759766 243.75496094 111.19759766 243.75496094 110.375 244.4375 C109.84003906 244.89898437 109.30507813 245.36046875 108.75390625 245.8359375 C103.01872575 249.45937146 97.16485573 249.35928722 90.61962891 249.35302734 C89.60747818 249.35974457 88.59532745 249.36646179 87.55250549 249.37338257 C84.2146409 249.39234277 80.87697756 249.39628569 77.5390625 249.3984375 C75.21267617 249.4048664 72.88629065 249.41159483 70.55990601 249.41860962 C65.68607712 249.43057716 60.8123191 249.43429093 55.93847656 249.43310547 C49.70198928 249.43290222 43.46595739 249.46021307 37.22957802 249.49464989 C32.4253634 249.51691681 27.62125846 249.52094308 22.81699753 249.51988602 C20.51815597 249.52224194 18.21931139 249.53106492 15.92052078 249.54655075 C12.70141177 249.56620736 9.48328594 249.56037348 6.26416016 249.54833984 C4.84870155 249.56519836 4.84870155 249.56519836 3.40464783 249.58239746 C-4.07291994 249.51158209 -9.1612996 247.53848214 -14.9375 242.8125 C-20.06511669 236.54541294 -21.78371327 230.98864719 -21.70889282 222.96755981 C-21.72036946 221.64481924 -21.72036946 221.64481924 -21.73207796 220.29535663 C-21.75261636 217.35827871 -21.7447777 214.42199168 -21.73681641 211.48486328 C-21.74551618 209.37184937 -21.75588433 207.25884177 -21.76779175 205.14584351 C-21.79453523 199.4184844 -21.79573323 193.69138956 -21.79066515 187.9639802 C-21.78852321 183.17775762 -21.79829889 178.39158824 -21.80787599 173.60537708 C-21.83005376 162.31125896 -21.83094822 151.01727388 -21.81884766 139.72314453 C-21.80676765 128.08276898 -21.83139378 116.44287689 -21.87398779 104.80258381 C-21.90924625 94.79807144 -21.92121837 84.79371278 -21.91471231 74.78914058 C-21.91109044 68.81849256 -21.91632039 62.84818942 -21.94414139 56.87759781 C-21.96933239 51.26145784 -21.96537866 45.64607026 -21.93931961 40.02994156 C-21.93459628 37.97328434 -21.94002825 35.91657388 -21.95656586 33.85997772 C-22.11048013 13.22554035 -22.11048013 13.22554035 -15.1875 6.0625 C-10.48725041 2.36945826 -6.09584585 -0.0999319 0 0 Z " fill="#E0F2FB" transform="translate(356.1875,197.9375)"/>
<path d="M0 0 C0 18.15 0 36.3 0 55 C-24.875 55.3125 -24.875 55.3125 -32.66748047 55.38793945 C-34.73406738 55.42026198 -36.80063815 55.45364025 -38.8671875 55.48828125 C-40.44222046 55.49764709 -40.44222046 55.49764709 -42.04907227 55.50720215 C-54.53710383 55.74797397 -62.8442999 58.98420217 -71.75 67.6875 C-83.31634051 84.71572353 -78.53470583 104.99235085 -79 125 C-159.52 125 -240.04 125 -323 125 C-323 116.42 -323 107.84 -323 99 C-320.03 96.69 -317.06 94.38 -314 92 C-308.87822575 86.87822575 -304.02373546 80.34337262 -303.98999023 72.74658203 C-303.82699791 69.66954725 -303.43161933 67.75084742 -302 65 C-297.23915748 61.38379565 -291.96737064 59.00491465 -286.5625 56.5 C-285.0514244 55.7672875 -283.54214418 55.03086102 -282.03466797 54.29077148 C-279.06158842 52.83525148 -276.08135059 51.39660824 -273.09326172 49.97216797 C-267.86588641 47.46983438 -262.7382363 44.78928309 -257.625 42.0625 C-256.8729126 41.66804688 -256.1208252 41.27359375 -255.34594727 40.8671875 C-252.46505676 39.35168522 -249.71125 37.8075 -247 36 C-242.84447746 36.33693426 -239.66942177 38.12625271 -236 40 C-232.19523245 41.2915266 -228.2893819 41.23107126 -224.3125 41.25 C-223.59787598 41.25394775 -222.88325195 41.25789551 -222.14697266 41.26196289 C-217.34859652 41.20913173 -213.39087203 40.61192159 -208.9921875 38.55859375 C-205.40298644 37.55220992 -202.44313282 38.25165933 -199.15771484 39.95532227 C-196.98497739 41.27354938 -194.86638868 42.65556967 -192.75 44.0625 C-191.0819448 45.14510449 -189.41259608 46.22571771 -187.7421875 47.3046875 C-186.8356543 47.89217773 -185.92912109 48.47966797 -184.99511719 49.08496094 C-178.75664886 53.07375663 -172.42159838 56.90850964 -166.10388184 60.77005005 C-164.44096918 61.7869932 -162.77905579 62.80556982 -161.1171875 63.82421875 C-160.15409668 64.41291748 -159.19100586 65.00161621 -158.19873047 65.6081543 C-156 67 -156 67 -155 68 C-154.70106521 69.84984397 -154.43621973 71.70523771 -154.1875 73.5625 C-152.57434596 83.38068932 -148.44312195 90.30983068 -141 97 C-130.99510369 103.61457875 -121.81100312 105.24131995 -110 104 C-100.25007549 101.68128246 -91.66481817 95.83499852 -86.3046875 87.30078125 C-83.02618871 81.06990463 -83.02618871 81.06990463 -82.17578125 74.25 C-82.33449059 70.47725219 -82.09965728 67.62600748 -81 64 C-77.46211253 60.15167762 -73.41073383 57.40850495 -69.1015625 54.48486328 C-65.39699182 51.86739129 -61.96968511 48.91729547 -58.5 46 C-52.83789668 41.30250904 -47.11414175 36.70199947 -41.30859375 32.18359375 C-36.63900748 28.53514708 -32.06365137 24.77979277 -27.5 21 C-20.0984245 14.87129089 -12.60321074 8.87662664 -5 3 C-4.23300781 2.40574219 -3.46601563 1.81148437 -2.67578125 1.19921875 C-1 0 -1 0 0 0 Z " fill="#C6E4F6" transform="translate(405,134)"/>
<path d="M0 0 C1.11388495 -0.00311998 2.22776991 -0.00623996 3.37540895 -0.00945449 C7.10329805 -0.0174241 10.83102391 -0.01111481 14.55891418 -0.00482178 C17.23323035 -0.00753205 19.90753531 -0.01102088 22.58184814 -0.01544189 C29.08807167 -0.02432616 35.594249 -0.02241846 42.10047432 -0.01661661 C47.38727189 -0.01209749 52.67405653 -0.0114883 57.96085548 -0.01366425 C58.71365042 -0.01397071 59.46644536 -0.01427718 60.24205226 -0.01459293 C61.7713626 -0.01523238 63.30067294 -0.01588081 64.82998327 -0.01653811 C79.16268768 -0.02223827 93.49536648 -0.01568784 107.82806668 -0.00493738 C120.12898699 0.00400331 132.42986956 0.00244122 144.73078918 -0.0067749 C159.01731163 -0.01747367 173.30381168 -0.02169473 187.59033757 -0.01555037 C189.11306433 -0.01491327 190.63579108 -0.01428453 192.15851784 -0.01366425 C193.28233318 -0.01320142 193.28233318 -0.01320142 194.42885187 -0.01272924 C199.71147625 -0.01100153 204.99408642 -0.01391893 210.2767086 -0.01862335 C216.71106824 -0.02422757 223.14537907 -0.0227252 229.5797331 -0.01206186 C232.86326645 -0.00679978 236.14670138 -0.00583124 239.43023682 -0.01136017 C242.98653231 -0.01679775 246.54259634 -0.01000314 250.09887695 0 C251.14078869 -0.00446144 252.18270042 -0.00892289 253.25618523 -0.01351953 C254.20731613 -0.00830403 255.15844703 -0.00308854 256.13840008 0.002285 C257.36983715 0.00277206 257.36983715 0.00277206 258.62615174 0.00326896 C261.14468981 0.28604847 262.72801042 0.89153198 264.85896301 2.25396729 C267.22354745 6.64438951 267.80297728 10.36082668 266.85896301 15.25396729 C263.27926158 20.07056864 257.93697149 23.36271426 253.04988098 26.72808838 C249.901861 28.92054714 246.91809582 31.29873203 243.92146301 33.69146729 C242.77454654 34.58888258 241.62740683 35.48601265 240.48005676 36.38287354 C234.96435175 40.73000988 229.57231057 45.2289608 224.15974426 49.70318604 C214.27453712 57.87349842 204.32590093 65.96064252 194.19807434 73.82891846 C191.97667674 75.55938488 189.85243242 77.26049787 187.85896301 79.25396729 C184.1125586 78.95425493 180.72486798 78.21597369 177.10896301 77.19146729 C168.35952786 74.98728266 160.94650095 76.13749413 152.58552551 79.28131104 C151.68575989 79.6022876 150.78599426 79.92326416 149.85896301 80.25396729 C149.08681458 80.56334229 148.31466614 80.87271729 147.51911926 81.19146729 C143.12059407 81.29481002 140.21946165 78.7271715 136.67146301 76.31646729 C134.99449005 75.2153548 133.31601462 74.11652826 131.63630676 73.01959229 C130.72348938 72.41953369 129.810672 71.8194751 128.87019348 71.20123291 C123.22425446 67.55018624 117.47213446 64.07003334 111.73396301 60.56646729 C109.48021487 59.18940763 107.22784627 57.81016899 104.97615051 56.42974854 C104.01305969 55.8410498 103.04996887 55.25235107 102.05769348 54.64581299 C99.85896301 53.25396729 99.85896301 53.25396729 98.85896301 52.25396729 C98.75071458 50.65128908 98.67325656 49.0465098 98.60896301 47.44146729 C97.81276693 38.02185522 94.18359139 28.50474424 86.85896301 22.25396729 C77.86378767 15.67517354 68.06991489 11.9927352 56.85896301 13.25396729 C46.42442267 15.2104436 37.5271803 20.12846189 31.32771301 28.82818604 C28.12476784 34.11815665 25.78146583 39.26922222 25.73396301 45.50396729 C24.85896301 49.25396729 24.85896301 49.25396729 23.23860168 50.59649658 C14.4068516 55.62248769 5.35488688 60.2158838 -3.70353699 64.81646729 C-6.18361115 66.07866735 -8.66313365 67.341927 -11.14175415 68.60697937 C-12.67245943 69.3879723 -14.20401985 70.16729262 -15.7366333 70.9445343 C-16.44444443 71.30518478 -17.15225555 71.66583527 -17.8815155 72.03741455 C-18.57681366 72.39030548 -19.27211182 72.74319641 -19.98847961 73.10678101 C-21.51675813 73.92126343 -23.01998264 74.7835466 -24.50331116 75.67727661 C-25.28344574 76.1446524 -26.06358032 76.6120282 -26.86735535 77.09356689 C-27.56686813 77.5292247 -28.26638092 77.96488251 -28.98709106 78.41374207 C-31.74857903 79.49096123 -33.3429712 79.10424403 -36.14103699 78.25396729 C-37.79864239 76.59636188 -37.3022528 74.62367467 -37.33390808 72.34210205 C-37.34997101 71.29333389 -37.36603394 70.24456573 -37.38258362 69.16401672 C-37.42704433 64.32820176 -37.46815795 59.4925272 -37.49113464 54.65655518 C-37.50763232 52.11251641 -37.53483932 49.56852279 -37.57316589 47.02471924 C-37.62822625 43.35219314 -37.64986124 39.68075816 -37.66447449 36.00787354 C-37.68714386 34.88143936 -37.70981323 33.75500519 -37.73316956 32.59443665 C-37.71300954 24.9751977 -36.14099547 19.72952573 -32.14103699 13.25396729 C-31.58416199 12.34646729 -31.02728699 11.43896729 -30.45353699 10.50396729 C-21.57682761 1.86716897 -11.8905425 -0.05124418 0 0 Z " fill="#C5E3F5" transform="translate(119.14103698730469,88.74603271484375)"/>
<path d="M0 0 C80.52 0 161.04 0 244 0 C244 16.5 244 33 244 50 C215.39241982 50.13553812 186.78510035 50.24602394 158.17728043 50.31087303 C144.89359535 50.34178646 131.61020816 50.38391907 118.32666016 50.45263672 C106.74622029 50.5125153 95.1659354 50.55116745 83.58534503 50.56453097 C77.45572136 50.57234027 71.32654097 50.59064225 65.19705963 50.63438034 C59.42187918 50.67525446 53.64732255 50.6876389 47.87201118 50.67864609 C45.75811683 50.68029009 43.64420056 50.69213611 41.53043175 50.71523285 C28.99055829 50.84547584 18.54522831 50.88362766 8.76279068 41.95895958 C-2.67314262 30.07713413 0 16.32757979 0 0 Z " fill="#0B589B" transform="translate(82,267)"/>
<path d="M0 0 C11.92147527 10.33434997 20.3303346 22.92797041 21.48828125 38.953125 C21.94654198 55.01134481 16.42825877 69.17207817 5.93359375 81.31640625 C-4.97698231 92.00301154 -18.19777221 96.96069755 -33.48046875 97.36328125 C-47.44945942 96.91266865 -60.53180104 91.83989476 -70.70703125 82.10546875 C-81.96965257 69.97314694 -87.11493087 55.76616667 -86.9453125 39.33203125 C-86.08408219 25.67761617 -80.14168612 13.72178434 -70.73046875 3.92578125 C-50.22899784 -13.83801221 -22.28691249 -16.93040133 0 0 Z " fill="#223944" transform="translate(437.73046875,237.07421875)"/>
<path d="M0 0 C1.29148956 -0.00137466 2.58297913 -0.00274933 3.91360474 -0.00416565 C5.34782433 -0.00062649 6.78204369 0.00300832 8.21626282 0.00672913 C9.7240753 0.00701115 11.23188792 0.00685297 12.73970032 0.00628662 C16.83651144 0.00599924 20.93329339 0.01188646 25.03009772 0.01886058 C29.31023496 0.02510391 33.59037283 0.02569869 37.87051392 0.02688599 C45.97713538 0.02999641 54.0837434 0.03820591 62.19035894 0.04823548 C71.41878796 0.05940558 80.64721762 0.06490933 89.87565172 0.06993091 C108.86069858 0.08038875 127.845727 0.09873066 146.83076477 0.12025452 C146.83076477 11.67025452 146.83076477 23.22025452 146.83076477 35.12025452 C126.90708454 35.25581577 106.98377903 35.36629128 87.05975437 35.43112755 C77.80820745 35.46203539 68.55696789 35.50415689 59.30561829 35.57289124 C51.23995549 35.63278765 43.17451535 35.671426 35.10863632 35.68478549 C30.8396462 35.69259204 26.57129294 35.71087407 22.3025074 35.75463486 C18.27962121 35.79553845 14.2576306 35.80788827 10.2345562 35.7989006 C8.76279702 35.80054338 7.29100608 35.81237348 5.81942749 35.83548737 C-3.07888874 35.96832755 -9.51408499 35.42482357 -16.16923523 29.12025452 C-19.57906388 24.67714445 -19.68642264 20.17718096 -19.51689148 14.73744202 C-18.82783488 9.55016203 -15.86842903 6.61917076 -12.10673523 3.30775452 C-7.90978894 0.18236898 -5.10191325 -0.00417847 0 0 Z " fill="#36464E" transform="translate(163.1692352294922,359.87974548339844)"/>
<path d="M0 0 C6.10541196 4.09446133 11.28208111 9.76915723 13.609375 16.85546875 C15.42010329 26.79636706 13.98474659 35.37634838 8.8203125 43.9609375 C4.19654898 50.22627387 -3.29049514 54.22774248 -10.90625 55.4765625 C-19.50179643 55.74215523 -27.27163678 53.41194433 -34 48 C-40.85308176 41.3827232 -44.07188532 35.62879938 -44.375 26.0625 C-44.03897083 16.14341678 -41.29387471 10.38783438 -34.4140625 3.171875 C-24.28070459 -5.94486771 -11.74729745 -5.88232472 0 0 Z " fill="#213B5E" transform="translate(437,68)"/>
<path d="M0 0 C7.11417243 4.96765488 13.08419089 11.33721099 15 20 C15.82972053 28.96995166 15.50400322 36.23368506 10.11328125 43.56640625 C4.0423425 50.84517574 -2.51399069 55.11158255 -12.0078125 56.23828125 C-20.30045235 56.52898265 -27.02144251 53.94124198 -33.375 48.625 C-39.91408759 42.44187081 -43.02705774 36.30100831 -43.375 27.3125 C-43.18567725 18.82453015 -41.1327995 11.82744986 -35.25 5.5625 C-25.2373288 -3.57055336 -12.42039301 -5.78400655 0 0 Z " fill="#213B5E" transform="translate(79,173)"/>
<path d="M0 0 C7.27893153 5.28603542 11.15550867 10.46652602 14 19 C14.80975381 29.37107761 13.45215192 37.88768603 6.8828125 46.140625 C-0.45313902 53.38525762 -8.33304974 55.41361229 -18.34375 55.3515625 C-23.70746382 54.83582079 -27.54957357 52.93014718 -32 50 C-32.928125 49.401875 -33.85625 48.80375 -34.8125 48.1875 C-41.18919237 41.81080763 -44.26441293 34.25052783 -44.4375 25.25 C-44.28410367 17.15408253 -42.36061628 11.73756754 -36.9453125 5.71484375 C-27.34979599 -3.43243929 -12.05720793 -7.5263156 0 0 Z " fill="#213B5E" transform="translate(196,113)"/>
<path d="M0 0 C7.44220857 4.50582696 13.17718689 11.52086305 15.375 20 C16.56074924 29.73047826 15.06548948 38.37842252 9.125 46.3125 C2.85619889 52.43882835 -3.98670881 55.98746526 -12.8125 56.375 C-21.1634811 56.19320994 -28.99170772 53.57153574 -35.125 47.77734375 C-42.24238354 39.34398565 -43.51192411 30.76979277 -42.625 20 C-40.52766748 11.68647712 -34.72958013 4.80605518 -27.75 0 C-19.7051117 -4.05694195 -8.11597898 -3.65405486 0 0 Z " fill="#213B5E" transform="translate(300.625,175)"/>
<path d="M0 0 C2 1 2 1 4.875 2.9375 C10.87120304 6.89499401 16.91364802 8.17775962 24 7 C27.24901033 5.65958317 30.2678822 4.12227682 33.3359375 2.41015625 C37.58932965 0.15872727 37.58932965 0.15872727 40 0 C45.71423253 3.29238007 50.20120815 8.64730474 52 15 C52.64503868 20.40840128 52.5340286 25.09031958 50 30 C40.43894277 39.16109269 28.72220543 41.61169184 15.94213867 41.47290039 C4.82892042 41.06228884 -5.05996196 36.94003804 -13 29 C-14.90069484 23.26064695 -15.13599232 16.81836157 -12.87109375 11.19921875 C-10.05629928 6.23841909 -6.41821596 0 0 0 Z " fill="#55C0ED" transform="translate(386,284)"/>
<path d="M0 0 C4.66666667 4.66666667 9.33333333 9.33333333 14 14 C-1.95868379 27.24262177 -1.95868379 27.24262177 -10 33.5 C-15.24118218 37.57908611 -20.38516626 41.76366169 -25.5 46 C-31.18217032 50.7053585 -36.910156 55.33552513 -42.73535156 59.86254883 C-45.97838323 62.38943442 -49.18128352 64.95725925 -52.35546875 67.5703125 C-53.08693115 68.17157959 -53.81839355 68.77284668 -54.57202148 69.39233398 C-56.0007695 70.56995803 -57.42618952 71.75163391 -58.84790039 72.93774414 C-59.49106201 73.46746826 -60.13422363 73.99719238 -60.796875 74.54296875 C-61.36760742 75.01758545 -61.93833984 75.49220215 -62.52636719 75.98120117 C-64 77 -64 77 -66 77 C-66.58007812 75.89591797 -66.58007812 75.89591797 -67.171875 74.76953125 C-67.69265625 73.79371094 -68.2134375 72.81789063 -68.75 71.8125 C-69.26046875 70.84957031 -69.7709375 69.88664062 -70.296875 68.89453125 C-71.98419141 66.02686736 -73.86128533 63.5432107 -76 61 C-47.67040756 37.60903046 -47.67040756 37.60903046 -34.36303711 27.23803711 C-29.63045656 23.53349272 -24.99958347 19.71308619 -20.375 15.875 C-13.733199 10.36517073 -6.97598131 5.08077251 0 0 Z " fill="#55C0EC" transform="translate(388,112)"/>
<path d="M0 0 C8.91417838 6.43371135 15.45582818 15.92621556 18.24609375 26.62109375 C18.65349173 30.29848839 18.66642002 33.92448475 18.62109375 37.62109375 C18.63269531 38.56726563 18.64429688 39.5134375 18.65625 40.48828125 C18.63104764 46.55364865 17.71722609 51.07738946 15.24609375 56.62109375 C14.58609375 56.62109375 13.92609375 56.62109375 13.24609375 56.62109375 C13.09914063 56.06421875 12.9521875 55.50734375 12.80078125 54.93359375 C10.16069669 45.95123709 5.96286632 40.08906915 -2.21484375 35.43359375 C-2.72273438 35.16546875 -3.230625 34.89734375 -3.75390625 34.62109375 C-3.59535156 33.92628906 -3.43679688 33.23148437 -3.2734375 32.515625 C-1.95102375 25.14789126 -1.40352013 17.01695278 -5.35546875 10.40234375 C-10.44679702 3.91729992 -15.76826193 0.23543855 -24.05078125 -0.78515625 C-32.48459223 -1.01412849 -38.37107049 -0.14216271 -44.75390625 5.62109375 C-48.27986784 9.16829608 -50.62688866 12.68731315 -50.84912109 17.8203125 C-50.79528762 20.31979568 -50.69237075 22.81172929 -50.56640625 25.30859375 C-50.15071712 33.7928738 -50.15071712 33.7928738 -52.5234375 37.05078125 C-54.87890625 38.68359375 -54.87890625 38.68359375 -57.359375 40.0859375 C-62.8980794 43.63685239 -65.47490114 50.6638804 -67.75390625 56.62109375 C-72.69921823 51.67578177 -73.00679313 43.89900376 -73.19140625 37.24609375 C-72.86289282 23.65385065 -67.53073261 13.56988925 -58.31640625 3.80859375 C-41.71052564 -11.80753239 -18.70717155 -12.00252126 0 0 Z " fill="#BADFF2" transform="translate(431.75390625,242.37890625)"/>
<path d="M0 0 C0.24234375 0.66386719 0.4846875 1.32773438 0.734375 2.01171875 C2.63047656 7.0072171 4.44309481 10.93496549 8 15 C8 15.66 8 16.32 8 17 C7.49364014 17.25056152 6.98728027 17.50112305 6.46557617 17.75927734 C-3.88013964 22.88621371 -14.16917557 28.10000163 -24.37158203 33.50683594 C-30.53424516 36.7690382 -36.74063542 39.92653955 -43 43 C-44.15082685 40.75243216 -45.29576858 38.50218252 -46.4375 36.25 C-46.76298828 35.61578125 -47.08847656 34.9815625 -47.42382812 34.328125 C-48.98415086 31.23965114 -50.24732279 28.37251074 -51 25 C-50.28158936 24.6282666 -49.56317871 24.2565332 -48.82299805 23.87353516 C-35.32732755 16.88837673 -21.84010806 9.88912855 -8.40234375 2.79296875 C-3.10239651 0 -3.10239651 0 0 0 Z " fill="#55BFEC" transform="translate(145,148)"/>
<path d="M0 0 C80.52 0 161.04 0 244 0 C244 16.5 244 33 244 50 C238.72 50 233.44 50 228 50 C228 33.83 228 17.66 228 1 C152.76 1 77.52 1 0 1 C0 0.67 0 0.34 0 0 Z " fill="#0E4A7F" transform="translate(82,267)"/>
<path d="M0 0 C5.67458259 1.89152753 9.32628019 5.65256038 12 11 C12.52779267 17.2117137 12.74403643 22.758349 9 28 C4.59941746 32.41260598 0.90592364 34.14908361 -5.3125 34.3125 C-10.37660482 34.26573386 -13.10671396 33.41849506 -17 30 C-17.7425 29.38125 -18.485 28.7625 -19.25 28.125 C-22.19755078 24.5458312 -22.87901507 21.10902853 -23.375 16.5625 C-22.75801185 10.70111254 -20.25116267 6.85760934 -15.875 3.125 C-10.67852542 -0.71587251 -6.33487223 -0.48453697 0 0 Z " fill="#FCCCBD" transform="translate(410,249)"/>
<path d="M0 0 C6.33398745 3.03089759 12.24483391 6.51623727 18.1875 10.25 C20.03898003 11.40508012 21.89054249 12.56002813 23.7421875 13.71484375 C25.08361816 14.55378174 25.08361816 14.55378174 26.45214844 15.40966797 C29.89616551 17.55937353 33.35251763 19.68861914 36.8125 21.8125 C37.82957031 22.43769531 38.84664062 23.06289062 39.89453125 23.70703125 C40.58933594 24.13371094 41.28414063 24.56039062 42 25 C40.51095825 28.89608498 38.75621287 32.59097018 36.875 36.3125 C36.33617187 37.38113281 35.79734375 38.44976562 35.2421875 39.55078125 C34.83226562 40.35902344 34.42234375 41.16726562 34 42 C28.62774436 41.53982671 24.76206223 38.5587711 20.375 35.6875 C18.68895227 34.60263113 17.00274947 33.51800324 15.31640625 32.43359375 C14.44773926 31.87140137 13.57907227 31.30920898 12.68408203 30.72998047 C8.24760451 27.87052261 3.77879099 25.06256541 -0.6875 22.25 C-2.29572469 21.23461535 -3.90381183 20.21901279 -5.51171875 19.203125 C-6.18678467 18.77676758 -6.86185059 18.35041016 -7.55737305 17.91113281 C-8.03343994 17.61045898 -8.50950684 17.30978516 -9 17 C-8.23810316 13.59313694 -7.07409398 11.37230045 -5.0625 8.5 C-3.13331256 5.73182932 -1.47824567 3.0304235 0 0 Z " fill="#55BFEC" transform="translate(217,150)"/>
<path d="M0 0 C5.48141721 2.39189115 8.67514928 6.57864597 11 12 C12.18063248 17.29744662 10.79213996 21.57930233 8.2109375 26.23828125 C5.75974424 29.80437209 3.05038841 31.64987053 -1 33 C-6.16036039 33.49416324 -10.59273205 33.62545242 -15.375 31.5 C-20.21443206 26.89101709 -23.26347293 22.72168887 -23.5625 15.875 C-23.30731712 11.25335442 -22.10644351 8.52623318 -19 5 C-12.82130656 -0.4431347 -8.10896624 -0.73331412 0 0 Z " fill="#223944" transform="translate(411,404)"/>
<path d="M0 0 C0.91418198 -0.00426498 1.82836395 -0.00852997 2.77024841 -0.01292419 C3.7811705 -0.01247101 4.79209259 -0.01201782 5.83364868 -0.0115509 C7.42134819 -0.01658882 7.42134819 -0.01658882 9.04112244 -0.02172852 C12.56002966 -0.0312717 16.07888946 -0.03318336 19.59780884 -0.03425598 C22.03299988 -0.0374664 24.46819072 -0.0408303 26.90338135 -0.04434204 C32.01637214 -0.05034187 37.12934602 -0.05218108 42.24234009 -0.05158997 C48.80553256 -0.05148834 55.36861686 -0.06513772 61.93178368 -0.08236217 C66.96397402 -0.093462 71.99613805 -0.09550979 77.02833939 -0.09498024 C79.44852699 -0.09616352 81.86871522 -0.10060462 84.28889084 -0.10831261 C87.6697733 -0.1180711 91.05041894 -0.11525072 94.43130493 -0.10920715 C95.94161537 -0.11763641 95.94161537 -0.11763641 97.48243713 -0.12623596 C98.40225876 -0.12204147 99.32208038 -0.11784698 100.26977539 -0.11352539 C101.06951468 -0.11407016 101.86925396 -0.11461493 102.69322777 -0.1151762 C104.76187134 0.13371277 104.76187134 0.13371277 107.76187134 2.13371277 C106.88687134 7.00871277 106.88687134 7.00871277 105.76187134 8.13371277 C104.33706363 8.23357229 102.90734943 8.2644619 101.47904968 8.26742554 C100.55500839 8.27169052 99.6309671 8.27595551 98.67892456 8.28034973 C97.65708069 8.27989655 96.63523682 8.27944336 95.58242798 8.27897644 C94.51260178 8.28233505 93.44277557 8.28569366 92.3405304 8.28915405 C88.78435116 8.29869649 85.22821885 8.30060879 81.67202759 8.30168152 C79.21202067 8.30489174 76.75201395 8.30825563 74.29200745 8.31176758 C69.12774208 8.31776705 63.96349346 8.31960663 58.79922485 8.3190155 C52.16643216 8.31891382 45.53374637 8.33256897 38.90097904 8.34978771 C33.81821698 8.36088027 28.73548099 8.36293556 23.65270805 8.36240578 C21.20657419 8.36358993 18.76043973 8.36803588 16.3143177 8.37573814 C12.89970434 8.38548306 9.48532599 8.38268183 6.07070923 8.37663269 C5.05088959 8.3822522 4.03106995 8.3878717 2.98034668 8.3936615 C1.59005501 8.38736977 1.59005501 8.38736977 0.17167664 8.38095093 C-1.0403765 8.38176808 -1.0403765 8.38176808 -2.27691555 8.38260174 C-4.23812866 8.13371277 -4.23812866 8.13371277 -6.23812866 6.13371277 C-5.60637954 0.95336995 -5.12394136 0.01074729 0 0 Z " fill="#213843" transform="translate(354.2381286621094,377.8662872314453)"/>
<path d="M0 0 C0.92404129 -0.00426498 1.84808258 -0.00852997 2.80012512 -0.01292419 C3.82196899 -0.01247101 4.84381287 -0.01201782 5.8966217 -0.0115509 C6.96644791 -0.01490952 8.03627411 -0.01826813 9.13851929 -0.02172852 C12.69469852 -0.03127095 16.25083084 -0.03318326 19.80702209 -0.03425598 C22.26702901 -0.0374662 24.72703573 -0.04083009 27.18704224 -0.04434204 C32.35130761 -0.05034152 37.51555622 -0.0521811 42.67982483 -0.05158997 C49.31261752 -0.05148828 55.94530331 -0.06514343 62.57807064 -0.08236217 C67.6608327 -0.09345474 72.7435687 -0.09551002 77.82634163 -0.09498024 C80.2724755 -0.0961644 82.71860995 -0.10061035 85.16473198 -0.10831261 C88.57934534 -0.11805753 91.99372369 -0.11525629 95.40834045 -0.10920715 C96.4281601 -0.11482666 97.44797974 -0.12044617 98.498703 -0.12623596 C99.42556412 -0.12204147 100.35242523 -0.11784698 101.30737305 -0.11352539 C102.51942618 -0.11434254 102.51942618 -0.11434254 103.75596523 -0.1151762 C105.71717834 0.13371277 105.71717834 0.13371277 107.71717834 2.13371277 C107.35036177 5.06824537 106.85280589 5.99808523 104.71717834 8.13371277 C102.7927866 8.38818836 102.7927866 8.38818836 100.39675903 8.39440918 C99.0360453 8.40503639 99.0360453 8.40503639 97.64784241 8.4158783 C96.64986633 8.41340088 95.65189026 8.41092346 94.62367249 8.40837097 C93.57481369 8.4134819 92.5259549 8.41859283 91.4453125 8.42385864 C87.96426247 8.43780457 84.48340931 8.43679411 81.00233459 8.43449402 C78.59099249 8.4383782 76.17965107 8.44271229 73.76831055 8.44747925 C68.70835657 8.45495223 63.64847236 8.45464237 58.58851624 8.4493866 C52.09366756 8.44359062 45.59910393 8.4605211 39.10430241 8.48373127 C34.12271445 8.49843957 29.14119559 8.49934427 24.15958977 8.49622154 C21.76451999 8.49673622 19.36944648 8.5020012 16.97439766 8.51203346 C13.62943449 8.52432415 10.28503244 8.51765027 6.94007874 8.50602722 C5.44615097 8.51749283 5.44615097 8.51749283 3.92204285 8.52919006 C3.01208054 8.52217575 2.10211823 8.51516144 1.1645813 8.50793457 C-0.02201788 8.50818618 -0.02201788 8.50818618 -1.23258877 8.50844288 C-3.80708945 8.03789003 -4.72825962 7.20758822 -6.28282166 5.13371277 C-5.72808312 0.41843519 -4.46727677 0.00926934 0 0 Z " fill="#283F4A" transform="translate(354.28282165527344,349.8662872314453)"/>
<path d="M0 0 C24.09 0 48.18 0 73 0 C72 6 72 6 70.31663513 7.84875488 C67.37145556 9.31235334 65.22190588 9.39422916 61.93383789 9.41992188 C60.09656883 9.44378967 60.09656883 9.44378967 58.22218323 9.46813965 C56.90233932 9.46834106 55.58249542 9.46854248 54.22265625 9.46875 C52.85029286 9.47585405 51.47793243 9.4835534 50.10557556 9.49182129 C47.23151388 9.50525682 44.35772685 9.5068392 41.48364258 9.50097656 C37.80683529 9.49508082 34.13134866 9.52566813 30.45479679 9.56609344 C27.62109827 9.59198782 24.78771706 9.59484642 21.95391655 9.59120178 C19.94145839 9.59371097 17.9290673 9.61839713 15.91676331 9.64343262 C5.76473897 9.56650347 5.76473897 9.56650347 2.69311523 6.71289062 C1 4 1 4 0 0 Z " fill="#93B1BD" transform="translate(368,198)"/>
<path d="M0 0 C-0.32145996 1.27286865 -0.64291992 2.5457373 -0.97412109 3.85717773 C-2.11800276 9.02405656 -2.34588748 14.00807078 -2.4140625 19.28515625 C-2.43342865 20.22685165 -2.4527948 21.16854706 -2.4727478 22.13877869 C-2.53198873 25.11326358 -2.57870474 28.08778836 -2.625 31.0625 C-2.66323096 33.09311478 -2.70228558 35.12371424 -2.7421875 37.15429688 C-2.83764389 42.10273841 -2.92187698 47.0512557 -3 52 C-8.28 52 -13.56 52 -19 52 C-19.18932655 47.47719897 -19.32790165 42.96234634 -19.4375 38.4375 C-19.49615234 37.16068359 -19.55480469 35.88386719 -19.61523438 34.56835938 C-19.78549929 25.20378892 -19.78549929 25.20378892 -17.50952148 21.71582031 C-15.74981165 20.0158986 -13.91124597 18.52362978 -12 17 C-10.27513714 14.41282672 -10.27513714 14.41282672 -9.1875 11.875 C-8.80980469 11.06804687 -8.43210937 10.26109375 -8.04296875 9.4296875 C-7.32190338 7.74990225 -6.66114954 6.04340981 -6.05078125 4.3203125 C-4.72867799 1.40087259 -3.32812271 0 0 0 Z " fill="#A9D4EE" transform="translate(329,207)"/>
<path d="M0 0 C4.38253554 2.19126777 7.16669816 4.41674539 9 9 C9.71062194 13.73747957 9.47089401 17.05821199 7.3125 21.375 C4.50666632 24.56000039 2.39237172 26.64989682 -1.921875 27.28125 C-6.4398266 27.48506737 -9.38476239 26.91227474 -13 24 C-16.84809552 19.61744677 -18.3675314 17.04028761 -18.28125 11.09765625 C-17.68750723 6.66932473 -15.08934255 3.93372218 -11.8125 1.125 C-7.79880044 -0.48047982 -4.26304489 -0.67667379 0 0 Z " fill="#213641" transform="translate(248,279)"/>
<path d="M0 0 C4.38253554 2.19126777 7.16669816 4.41674539 9 9 C9.71062194 13.73747957 9.47089401 17.05821199 7.3125 21.375 C3.74112359 25.42899485 1.01717826 27.15053392 -4.375 27.5625 C-8.95660521 27.41717362 -11.30881389 25.77472742 -14.58984375 22.703125 C-17.64602441 19.01200376 -18.45164294 15.86881736 -18.31640625 11.02734375 C-17.63254344 6.6455561 -15.07151738 3.91844347 -11.8125 1.125 C-7.79880044 -0.48047982 -4.26304489 -0.67667379 0 0 Z " fill="#1E3741" transform="translate(293,279)"/>
<path d="M0 0 C3.74329771 1.94457024 6.35440488 4.13642647 7.7578125 8.1875 C8.55915428 13.23424824 7.98354321 16.72358806 5 21 C2.67479087 23.76118585 1.01210609 24.83466359 -2.55859375 25.41796875 C-7.2526251 25.65362568 -10.87795522 25.68251596 -14.625 22.625 C-18.45772696 18.3888281 -18.39541074 15.34556558 -18.3515625 9.76953125 C-17.7988962 5.41574898 -16.25456215 3.88472554 -13 1 C-8.58773014 -1.6727302 -4.86977114 -1.3749942 0 0 Z " fill="#1D3540" transform="translate(204,280)"/>
<path d="M0 0 C3.29291844 2.11084515 3.88775952 3.64347142 5.0625 7.375 C5 11 5 11 3.0625 14.4375 C-0.51682399 17.43244456 -0.51682399 17.43244456 -4.0625 17.625 C-8.29509682 16.95315923 -9.51129559 16.38463799 -12 13 C-13.44430855 10.11138291 -13.37688506 8.20352299 -13 5 C-9.2217441 -0.43124286 -6.19885712 -0.88555102 0 0 Z " fill="#90AEBA" transform="translate(409,412)"/>
<path d="M0 0 C1.33359073 6.42548263 1.33359073 6.42548263 -0.125 8.9375 C-2.63647631 10.36066991 -4.15503228 10.42674516 -7 10 C-8.8125 8.8125 -8.8125 8.8125 -10 7 C-10.42674516 4.15503228 -10.36066991 2.63647631 -8.9375 0.125 C-5.88430685 -1.64782183 -3.33588292 -0.69235306 0 0 Z " fill="#52B9E4" transform="translate(203,288)"/>
<path d="M0 0 C1.8125 1.1875 1.8125 1.1875 3 3 C3.4334014 5.88934264 3.42525784 7.35092224 1.8125 9.8125 C-0.64907776 11.42525784 -2.11065736 11.4334014 -5 11 C-6.8125 9.8125 -6.8125 9.8125 -8 8 C-8.4334014 5.11065736 -8.42525784 3.64907776 -6.8125 1.1875 C-4.35092224 -0.42525784 -2.88934264 -0.4334014 0 0 Z " fill="#DA6F70" transform="translate(246,287)"/>
<path d="M0 0 C2.5625 0.3125 2.5625 0.3125 4.375 1.5 C5.98775784 3.96157776 5.9959014 5.42315736 5.5625 8.3125 C4.375 10.125 4.375 10.125 2.5625 11.3125 C0.0625 11.75 0.0625 11.75 -2.4375 11.3125 C-4.3125 9.625 -4.3125 9.625 -5.4375 7.3125 C-5.14609088 3.23277231 -4.43505664 0.56859701 0 0 Z " fill="#62B568" transform="translate(288.4375,286.6875)"/>
<path d="M0 0 C0.66 0.33 1.32 0.66 2 1 C-1.96 4.96 -5.92 8.92 -10 13 C-10 9.28115772 -9.1259934 8.63852271 -6.6875 5.9375 C-5.76517578 4.89916016 -5.76517578 4.89916016 -4.82421875 3.83984375 C-3 2 -3 2 0 0 Z " fill="#44606C" transform="translate(90,87)"/>
</svg>
